<svg width="217" height="36" viewBox="0 0 217 36" fill="none" xmlns="http://www.w3.org/2000/svg">
<path d="M34.545 1.125H45.5565L34.8233 34.875H23.8118L27.5883 23.0625H14.788L11.0115 34.875H0L10.7332 1.125H21.7447L17.6899 13.8214H30.4902L34.545 1.125Z" fill="white"/>
<path d="M54.8604 36C50.0106 36 46.2341 34.7679 43.531 32.3036C40.8278 29.8393 39.4762 26.4375 39.4762 22.0982C39.4762 18.2411 40.4965 14.625 42.5371 11.25C44.5778 7.875 47.4135 5.15625 51.0442 3.09375C54.7014 1.03125 58.7297 0 63.129 0C67.9788 0 71.7553 1.23214 74.4585 3.69643C77.1617 6.16072 78.5132 9.5625 78.5132 13.9018C78.5132 17.7589 77.4929 21.375 75.4523 24.75C73.4117 28.125 70.5627 30.8438 66.9055 32.9062C63.2747 34.9688 59.2597 36 54.8604 36ZM56.6493 26.3973C59.75 26.3973 62.3207 25.2857 64.3613 23.0625C66.4285 20.8125 67.4885 18.3482 67.5415 15.6696C67.5415 13.7143 66.9452 12.2143 65.7527 11.1696C64.5866 10.125 63.1157 9.60268 61.3401 9.60268C58.2394 9.60268 55.6555 10.7277 53.5884 12.9777C51.5477 15.2009 50.5009 17.6518 50.4479 20.3304C50.4479 22.2857 51.0309 23.7857 52.197 24.8304C53.3896 25.875 54.8737 26.3973 56.6493 26.3973Z" fill="white"/>
<path d="M92.8124 36C87.9626 36 84.1861 34.7679 81.4829 32.3036C78.7797 29.8393 77.4281 26.4375 77.4281 22.0982C77.4281 18.2411 78.4484 14.625 80.4891 11.25C82.5297 7.875 85.3654 5.15625 88.9961 3.09375C92.6534 1.03125 96.6816 0 101.081 0C105.931 0 109.707 1.23214 112.41 3.69643C115.114 6.16072 116.465 9.5625 116.465 13.9018C116.465 17.7589 115.445 21.375 113.404 24.75C111.364 28.125 108.515 30.8438 104.857 32.9062C101.227 34.9688 97.2117 36 92.8124 36ZM94.6012 26.3973C97.7019 26.3973 100.273 25.2857 102.313 23.0625C104.38 20.8125 105.44 18.3482 105.493 15.6696C105.493 13.7143 104.897 12.2143 103.705 11.1696C102.539 10.125 101.068 9.60268 99.292 9.60268C96.1913 9.60268 93.6074 10.7277 91.5403 12.9777C89.4997 15.2009 88.4528 17.6518 88.3998 20.3304C88.3998 22.2857 88.9829 23.7857 90.1489 24.8304C91.3415 25.875 92.8256 26.3973 94.6012 26.3973Z" fill="white"/>
<path d="M156.435 1.125L138.467 16.433L149.2 34.875H138.228L130.715 21.9777H129.801L123.878 26.6786L121.254 34.875H110.282L121.175 1.125H132.146L128.37 12.817H129.721L143.834 1.125H156.435Z" fill="white"/>
<path d="M184.953 10.0045H165.752L164.361 14.3438H183.442L181.136 21.4554H162.095L160.624 25.9955H179.785L176.923 34.875H146.79L157.563 1.125H187.815L184.953 10.0045Z" fill="white"/>
<path d="M194.077 36C191.903 36 189.969 35.8661 188.273 35.5982C186.603 35.3304 185.092 34.9018 183.741 34.3125C182.416 33.7232 181.422 32.9598 180.759 32.0223C180.07 31.058 179.646 29.8929 179.487 28.5268C179.328 27.1339 179.593 25.5268 180.282 23.7054H189.624C189.359 24.9911 189.796 25.942 190.936 26.558C192.076 27.1741 193.639 27.4821 195.627 27.4821C197.747 27.4821 199.496 27.2143 200.874 26.6786C202.279 26.1429 202.981 25.3259 202.981 24.2277C202.981 22.8616 201.696 21.9911 199.125 21.6161L196.462 21.1741C195.693 21.067 195.11 20.9866 194.713 20.933C194.315 20.8527 193.639 20.7054 192.685 20.4911C191.731 20.2768 190.963 20.0491 190.38 19.808C189.796 19.567 189.094 19.2188 188.273 18.7634C187.478 18.308 186.842 17.8125 186.365 17.2768C185.914 16.7411 185.516 16.0714 185.172 15.2679C184.827 14.4375 184.655 13.5402 184.655 12.5759C184.655 8.63839 186.325 5.55803 189.664 3.33482C193.03 1.11161 197.442 0 202.902 0C206.347 0 209.249 0.482143 211.607 1.44643C213.993 2.38393 215.609 3.76339 216.457 5.58482C217.305 7.37947 217.16 9.58929 216.02 12.2143H206.996C207.182 11.2232 206.811 10.3661 205.883 9.64286C204.982 8.89286 203.471 8.51786 201.351 8.51786C199.47 8.51786 197.959 8.8125 196.819 9.40178C195.706 9.99107 195.15 10.7813 195.15 11.7723C195.15 12.9777 196.21 13.7679 198.33 14.1429L200.278 14.5045C200.649 14.5848 201.298 14.7054 202.226 14.8661C203.153 15.0268 203.895 15.1607 204.452 15.2679C205.008 15.375 205.737 15.5491 206.638 15.7902C207.539 16.0313 208.281 16.2723 208.864 16.5134C209.448 16.7545 210.07 17.1027 210.733 17.558C211.422 17.9866 211.965 18.4554 212.363 18.9643C212.76 19.4732 213.092 20.0893 213.357 20.8125C213.622 21.5357 213.754 22.3393 213.754 23.2232C213.754 25.5536 213.224 27.5625 212.164 29.25C211.13 30.9375 209.673 32.2634 207.791 33.2277C205.936 34.192 203.869 34.8884 201.59 35.317C199.337 35.7723 196.833 36 194.077 36Z" fill="white"/>
</svg>
