<svg width="169" height="28" viewBox="0 0 169 28" fill="none" xmlns="http://www.w3.org/2000/svg">
<path d="M26.9037 0.875002H35.4795L27.1204 27.125H18.5447L21.4858 17.9375H11.5169L8.57575 27.125H0L8.35904 0.875002H16.9348L13.7769 10.75H23.7459L26.9037 0.875002Z" fill="#1A1B27"/>
<path d="M42.7254 28C38.9484 28 36.0072 27.0417 33.902 25.125C31.7968 23.2083 30.7441 20.5625 30.7441 17.1875C30.7441 14.1875 31.5388 11.375 33.128 8.75C34.7173 6.125 36.9257 4.01042 39.7533 2.40625C42.6016 0.802083 45.7388 0 49.165 0C52.942 0 55.8832 0.958333 57.9884 2.875C60.0936 4.79167 61.1463 7.4375 61.1463 10.8125C61.1463 13.8125 60.3516 16.625 58.7624 19.25C57.1731 21.875 54.9544 23.9896 52.1061 25.5938C49.2785 27.1979 46.1516 28 42.7254 28ZM44.1186 20.5312C46.5334 20.5312 48.5355 19.6667 50.1247 17.9375C51.7346 16.1875 52.5602 14.2708 52.6015 12.1875C52.6015 10.6667 52.1371 9.5 51.2083 8.6875C50.3001 7.875 49.1547 7.46875 47.7718 7.46875C45.357 7.46875 43.3446 8.34375 41.7347 10.0938C40.1455 11.8229 39.3302 13.7292 39.2889 15.8125C39.2889 17.3333 39.743 18.5 40.6511 19.3125C41.5799 20.125 42.7357 20.5312 44.1186 20.5312Z" fill="#1A1B27"/>
<path d="M72.2824 28C68.5054 28 65.5643 27.0417 63.459 25.125C61.3538 23.2083 60.3012 20.5625 60.3012 17.1875C60.3012 14.1875 61.0958 11.375 62.685 8.75C64.2743 6.125 66.4827 4.01042 69.3103 2.40625C72.1586 0.802083 75.2958 0 78.722 0C82.499 0 85.4402 0.958333 87.5454 2.875C89.6507 4.79167 90.7033 7.4375 90.7033 10.8125C90.7033 13.8125 89.9087 16.625 88.3194 19.25C86.7302 21.875 84.5114 23.9896 81.6631 25.5938C78.8355 27.1979 75.7086 28 72.2824 28ZM73.6756 20.5312C76.0905 20.5312 78.0925 19.6667 79.6817 17.9375C81.2916 16.1875 82.1172 14.2708 82.1585 12.1875C82.1585 10.6667 81.6941 9.5 80.7653 8.6875C79.8572 7.875 78.7117 7.46875 77.3288 7.46875C74.914 7.46875 72.9016 8.34375 71.2917 10.0938C69.7025 11.8229 68.8872 13.7292 68.846 15.8125C68.846 17.3333 69.3 18.5 70.2082 19.3125C71.1369 20.125 72.2928 20.5312 73.6756 20.5312Z" fill="#1A1B27"/>
<path d="M121.832 0.875002L107.838 12.7812L116.197 27.125H107.653L101.801 17.0938H101.089L96.4762 20.75L94.4329 27.125H85.8881L94.371 0.875002H102.916L99.9747 9.96875H101.027L112.018 0.875002H121.832Z" fill="#1A1B27"/>
<path d="M144.041 7.78125H129.088L128.005 11.1563H142.865L141.069 16.6875H126.24L125.094 20.2188H140.017L137.788 27.125H114.32L122.71 0.875002H146.271L144.041 7.78125Z" fill="#1A1B27"/>
<path d="M151.147 28C149.455 28 147.948 27.8958 146.627 27.6875C145.327 27.4792 144.15 27.1458 143.098 26.6875C142.066 26.2292 141.292 25.6354 140.776 24.9062C140.239 24.1562 139.909 23.25 139.785 22.1875C139.661 21.1042 139.868 19.8542 140.404 18.4375H147.68C147.473 19.4375 147.814 20.1771 148.701 20.6562C149.589 21.1354 150.807 21.375 152.355 21.375C154.006 21.375 155.368 21.1667 156.441 20.75C157.535 20.3333 158.082 19.6979 158.082 18.8438C158.082 17.7812 157.081 17.1042 155.079 16.8125L153.005 16.4688C152.406 16.3854 151.952 16.3229 151.643 16.2812C151.333 16.2188 150.807 16.1042 150.064 15.9375C149.321 15.7708 148.722 15.5938 148.268 15.4062C147.814 15.2188 147.267 14.9479 146.627 14.5938C146.008 14.2396 145.513 13.8542 145.141 13.4375C144.79 13.0208 144.481 12.5 144.212 11.875C143.944 11.2292 143.81 10.5313 143.81 9.78125C143.81 6.71875 145.11 4.32292 147.711 2.59375C150.332 0.864583 153.768 0 158.02 0C160.703 0 162.963 0.375 164.8 1.125C166.658 1.85417 167.917 2.92708 168.577 4.34375C169.238 5.73958 169.124 7.45833 168.237 9.5H161.209C161.353 8.72917 161.064 8.0625 160.342 7.5C159.64 6.91667 158.464 6.625 156.813 6.625C155.347 6.625 154.171 6.85417 153.283 7.3125C152.416 7.77083 151.983 8.38542 151.983 9.15625C151.983 10.0938 152.809 10.7083 154.46 11L155.977 11.2813C156.266 11.3438 156.771 11.4375 157.494 11.5625C158.216 11.6875 158.794 11.7917 159.228 11.875C159.661 11.9583 160.229 12.0938 160.93 12.2813C161.632 12.4688 162.21 12.6562 162.664 12.8438C163.118 13.0312 163.603 13.3021 164.119 13.6562C164.656 13.9896 165.079 14.3542 165.388 14.75C165.698 15.1458 165.956 15.625 166.162 16.1875C166.369 16.75 166.472 17.375 166.472 18.0625C166.472 19.875 166.059 21.4375 165.234 22.75C164.429 24.0625 163.294 25.0938 161.828 25.8438C160.383 26.5938 158.773 27.1354 156.998 27.4688C155.244 27.8229 153.294 28 151.147 28Z" fill="#1A1B27"/>
</svg>
